/* XPM */
static char *collect[] = {
/* columns rows colors chars-per-pixel */
"32 32 25 1 ",
"  c #141B1B",
". c #4E484A",
"X c #8D977F",
"o c #C8966B",
"O c #CA9C6F",
"+ c #CB9E70",
"@ c #CEA775",
"# c #CFAC79",
"$ c #D0AC79",
"% c #D1B27C",
"& c #D8B67B",
"* c #DBB87A",
"= c #E3BC76",
"- c #E9BF74",
"; c #E1BB78",
": c #E9C074",
"> c #F2C471",
", c #D7B984",
"< c #D8B983",
"1 c #DFC08C",
"2 c #E2C38F",
"3 c #E7C894",
"4 c #E9CA96",
"5 c #EECF9B",
"6 c white",
/* pixels */
"oooooooooooooooooooooooooooooooo",
"o@##o@####O$##$O####@oooooO$##oo",
"O%;>==>>>:&>>>>&:>>>=%%%%%%:>;$o",
"oO**%%***%%&**&%%***%%%%%%%&**Oo",
"+@&<5551%:>>:%1555<&>>>;%4554%oo",
"+%:35555*>>>>*55553:>>>><5555<oo",
"OO%%333,%=::=%,333%%:::&%2332%oo",
"o@::=%&:::%%:::&%=::=%&:::%%::@o",
"+%>>>*>>>>::>>>>*>>>>*>>>>::>>%+",
"O$>>:%;>>>&&>>>;%:>>:%;>>>&&>>$O",
"oo%%%%%%%%%%%%%%%%%%%%%%%%%%%%oo",
"o@::%%333<%=::=%<333%%:::&%=::@o",
"o#>>:35555*>>>   5553:>>>>*>>>%+",
"o#>>&<5551%:  666  5<&>>>;%:>>$O",
"O+%%***%%&* 6666666 ***%%<<<<%oo",
"+%==>>>:&> 666%%%66% >>:<5555<oo",
"+%==>>>:& %66%...%%%% >:<5555<oo",
"O+%%***%% %%%.....%%% *%%<<<<%oo",
"o#>>:%;>> XX       XX ;>>>&%%%oo",
"o#>>>*>>> XX       XX >>>>:%%%oo",
"o@::=%&:::           %&:::%%%%oo",
"oo%%%%%%%%%%%%%%%%%%%%%%%%%%%%oo",
"oo%%%&>>>;%4554%;>>>&&>>>;%:>>$O",
"oo%%%:>>>><5555<>>>>::>>>>*>>>%+",
"oo%%%%-::&%2332%&:::%%:::&%=::@o",
"o@%%333,%=::=%&:::%%:::&%=::=%oo",
"o#:35555*>>>>*>>>>::>>>>*>>>>*oo",
"o#&<5551%:>>:%;>>>&&>>>;%:>>:%oo",
"oO**&%%***%%***%%%%%%%%***%%**Oo",
"oO;>>&:>>>%=>>>:%%%%%%:>>>==>>$o",
"ooO$$O####@@####oooooo####@@##@o",
"oooooooooooooooooooooooooooooooo"
};
