/* XPM */
static char *e_back[] = {
/* columns rows colors chars-per-pixel */
"32 32 31 1 ",
"  c #323234",
". c #534721",
"X c #555836",
"o c #545456",
"O c #767678",
"+ c #959963",
"@ c #C8966B",
"# c #CA9C6F",
"$ c #CB9E70",
"% c #CEA775",
"& c #CFAC79",
"* c #D0AC79",
"= c #D1B27C",
"- c #D8B67B",
"; c #DBB87A",
": c #E3BC76",
"> c #E1BB78",
", c #E9C074",
"< c #F2C471",
"1 c #979799",
"2 c #BABE95",
"3 c #D7B984",
"4 c #D8B983",
"5 c #DFC08C",
"6 c #E2C38F",
"7 c #E7C894",
"8 c #E9CA96",
"9 c #EECF9B",
"0 c #D2D2D6",
"q c #E4E6D1",
"w c white",
/* pixels */
"@@@@@@@@@@@@@@@@@@@@@@@@@@@@@@@@",
"@%&&@%&&&&#*&&*#&&&&%@@@@@#*&&@@",
"#=><::<<<,-<<<<-,<<<:======,<>*@",
"@#;;==;;;==-;XXXXXXX=======-;;#@",
"$%-49995=,<XX++222++XX<>=8998=@@",
"$=,79999;<X+22qqqqq22+X<499994@@",
"##==7773=X+2qqwwwwwqq2+X=6776=@@",
"@%,,:=-,,X2qqwwwwwwwqq2X,,==,,%@",
"$=<<<;<<X+2qwwwwwwwwwq2+X<,,<1=$",
"#*<<,=><X2qqwwwwwwwwwqq2X<--11*#",
"@@======X2qqwwwwwwwwwqq2X==101@@",
"@%,,==77X2qqwwwwwwwwwqq2X-=101%@",
"@&<<,799X2qqqwwwwwwwqqq2X<1001=$",
"@&<<-499X22qqqqqqqqqqq22X>1001*#",
"#$==;;;=X++q222222222q++X41001@@",
"$=::<<<,X++22+++++++22++X91001@@",
"$=::<<<,-X+++XXXXXXX+++X410014@@",
"#$==;;;==XXXXXX+2+XXXXXX=1001=@@",
"@&<<,=  X++22+X+++X+22++X1001=@@",
"@&<<  1X+2wwwq+2q2+qwww2+X001=@@",
"@%, 1OoXwq2www2+2+2www2qwX01==@@",
"@@= 1..Xq2X2ww+2q2+ww2X2qX01==@@",
"@@= 1.Xq+XX+22+X2X+22+XX+qXo <*#",
"@@= 1X+w2X X++X+w+X++X<X2w+XO =$",
"@@= 1Xww+XX2wqX+q+Xqw2XX+wwX ,%@",
"@%= 1XwqXoX+qwwX2Xww2+X-XqwX:=@@",
"@&, 1.XX.o X+22+++22+X<<;XX<<;@@",
"@&- Oo...o XqqXXXXXqqX<>=,<<,=@@",
"@#;; Oo.O =X222X=X222X=;;;==;;#@",
"@#><< Oo <=XqwqX=XqwqX,<<<::<<*@",
"@@#**#  &&%XwwqX@XqwwX&&&&%%&&%@",
"@@@@@@@@@@@@XXX@@@XXX@@@@@@@@@@@"
};
