/* XPM */
static char *e_front[] = {
/* columns rows colors chars-per-pixel */
"32 32 45 1 ",
"  c #2E1E22",
". c #323234",
"X c #534721",
"o c #505133",
"O c #555836",
"+ c #6E5E2C",
"@ c #545456",
"# c #635B4D",
"$ c #6E6B4B",
"% c #736A64",
"& c #7D7375",
"* c #767678",
"= c #86826A",
"- c #959963",
"; c #C8966B",
": c #CA9C6F",
"> c #CB9E70",
", c #CEA775",
"< c #CFAC79",
"1 c #D0AC79",
"2 c #D1B27C",
"3 c #D8B67B",
"4 c #DBB87A",
"5 c #E3BC76",
"6 c #E1BB78",
"7 c #E9C074",
"8 c #F2C471",
"9 c #979799",
"0 c #A09B90",
"q c #A9AA86",
"w c #BABE95",
"e c #B1ABAD",
"r c #B7B7BB",
"t c #D7B984",
"y c #D8B983",
"u c #DFC08C",
"i c #E2C38F",
"p c #E7C894",
"a c #E9CA96",
"s c #EECF9B",
"d c #CDCDBB",
"f c #D2D2D6",
"g c #E4E6D1",
"h c #E5E3E3",
"j c white",
/* pixels */
";;;;;;;;;;;;;;;;;;;;;;;;;;;;;;;;",
";,<<;,<<<<:1<<1:<<<<,;;;;;:1<<;;",
":268558887388883788852222227861;",
";:44224442234OOOOOOO2222222344:;",
">,3ysssu278OO--www--OO862assa2;;",
">27pssss48O-wwgggggww-O8yssssy;;",
"::22pppt2O-wgggggggggw-O2ippi2;;",
";,7752377OwgggjjjjjgggwO772277,;",
">2888488O-wggjjjjjjjggw-O877882>",
":1987268OwwwgjjjjjjjgwwwO833881:",
";;992222OwggggjjjjjggggwO22222;;",
";,9j92ppOwgjjjgjjjgjjjgwO32577,;",
";<9jrpssOwdeehjgggjheedwO848882>",
";<9jj9ssOq%  &hjjjh&  %qO627881:",
":>9jj942O$    ejjje    $Oyyyy2;;",
">29fj987O$    ejgje    $Ossssy;;",
">29fjr873o#  &h-w-h&  #oyssssy;;",
":>29jj922Oo=0hjjjjjh0=oO2yyyy2;;",
";<89jj98O--O-Og-g-gO-O--O832...;",
";<89fj9O-jgwOOOOOOOOOwgj-...@*.;",
";,79fjrOj--gjjj---jjjg...@9**@.;",
";;229jj...O---wjgjw---.*9r@X+@.;",
";;229jj@99.wgjjwwwjjgw.*+X+X+@.:",
";;2.@*99@.yO--w---w--O.*+X+@*@.>",
";;.*99@@.OOwgwOO-OOwgw.*9r9*@@.;",
";,2...jgO5O-jg-OwO-gj-.*99*X+@.;",
";<7pssOO488Owjw---wjwO.*+X+X+@.;",
";<3ysssu278OgwOOOOOwgO.*9X+X+@.;",
";:443224442Owg-O2O-gwO2.@9+X@.:;",
";:688378882OgjwO2OwjgO78.@9*.81;",
";;:11:<<<<,OjjgO;OgjjO<<<...<<,;",
";;;;;;;;;;;;OOO;;;OOO;;;;;;;;;;;"
};
