/* XPM */
static char *e_left[] = {
/* columns rows colors chars-per-pixel */
"32 32 38 1 ",
"  c #2E1E22",
". c #323234",
"X c #534721",
"o c #555836",
"O c #6E5E2C",
"+ c #545456",
"@ c #7D7375",
"# c #767678",
"$ c #959963",
"% c #C8966B",
"& c #CA9C6F",
"* c #CB9E70",
"= c #CEA775",
"- c #CFAC79",
"; c #D0AC79",
": c #D1B27C",
"> c #D8B67B",
", c #DBB87A",
"< c #E3BC76",
"1 c #E9BF74",
"2 c #E1BB78",
"3 c #E9C074",
"4 c #F2C471",
"5 c #979799",
"6 c #BABE95",
"7 c #B1ABAD",
"8 c #B7B7BB",
"9 c #D7B984",
"0 c #D8B983",
"q c #DFC08C",
"w c #E2C38F",
"e c #E7C894",
"r c #E9CA96",
"t c #EECF9B",
"y c #D2D2D6",
"u c #E4E6D1",
"i c #E5E3E3",
"p c white",
/* pixels */
"%%%%%%%%%%%%%%%%%%%%%%%%%%%%%%%%",
"%=--%=----&;--;&----=%%%%%&;--%%",
"&:24<<4443>4444>3444<::::::342;%",
"%&,,::,,,::>,ooooooo:::::::>,,&%",
"*=>0tttq:34oo$$666$$oo42:rttr:%%",
"*:3etttt,4o$66uuuuu66$o40tttt0%%",
"&&::eee9:o$6uuuuuuuuu6$o:weew:%%",
"%=33<:>33o6uuppppppuuu6o33::33=%",
"*:444,44o$uuppppppppuu6$o43344:*",
"&;443:24o6uppppppppppuu6o4>>44;&",
"%%::::::ouupuuuuuuppuuu6o:::::%%",
"%=35::eeoupupppppu6uuu66o>:<33=%",
"%-455etto6upi77ippu66666o4,444:*",
"%-45y5tto6pi@  @ipu$666$o2:344;&",
"&*:5yy5:oup7    7pu6$$$$o0000:%%",
"*:<<5yy5oup7    7ppu6$$o0tttt0%%",
"*:<<5yyyo6$i@  @ip6$$oo30tttt0%%",
"&*::,5yyyo6ui77ip6$$o,,::0000:%%",
"%-443:5yyyo$oi$u$$$o3:2444>:::%%",
"%-444,45yyyooo.....o4,44443:::%%",
"%=33<:>35yyo$$.+#5#....333::::%%",
"%%:::::::5youp.+OX885#.:::::::%%",
"%%:::>44425o6p.+OXOXO#.442:344;&",
"%%:::3444405o$.+OXOXO#.444,444:*",
"%%::::133>.+#o.+#5885#.33>:<33=%",
"%=::eee9:.###o.+#5885#.>:<33<:%%",
"%-3etttt,4...o.+OXOXO#.4,4444,%%",
"%->0tttq:3443:.+OXOX5+.2:3443:%%",
"%&,,>::,,,::,,o.#XO5+.:,,,::,,&%",
"%&244>3444:<44ou.55+.:3444<<44;%",
"%%&;;&----==--opp...%%----==--=%",
"%%%%%%%%%%%%%%%oooo%%%%%%%%%%%%%"
};
