/* XPM */
static char *e_right[] = {
/* columns rows colors chars-per-pixel */
"32 32 37 1 ",
"  c #2E1E22",
". c #323234",
"X c #534721",
"o c #555836",
"O c #545456",
"+ c #7D7375",
"@ c #767678",
"# c #959963",
"$ c #C8966B",
"% c #CA9C6F",
"& c #CB9E70",
"* c #CEA775",
"= c #CFAC79",
"- c #D0AC79",
"; c #D1B27C",
": c #D8B67B",
"> c #DBB87A",
", c #E3BC76",
"< c #E9BF74",
"1 c #E1BB78",
"2 c #E9C074",
"3 c #F2C471",
"4 c #979799",
"5 c #BABE95",
"6 c #B1ABAD",
"7 c #B7B7BB",
"8 c #D7B984",
"9 c #D8B983",
"0 c #DFC08C",
"q c #E2C38F",
"w c #E7C894",
"e c #E9CA96",
"r c #EECF9B",
"t c #D2D2D6",
"y c #E4E6D1",
"u c #E5E3E3",
"i c white",
/* pixels */
"$$$$$$$$$$$$$$$$$$$$$$$$$$$$$$$$",
"$*==$*====%-==-%====*$$$$$%-==$$",
"%;13,,3332:3333:2333,;;;;;;231-$",
"$%>>;;>>>;;:>ooooooo;;;;;;;:>>%$",
"&*:9rrr0;23oo##555##oo31;erre;$$",
"&;2wrrrr>3o#55yyyyy55#o39rrrr9$$",
"%%;;www8;o#5yyyyyyyyy5#o;qwwq;$$",
"$*22,;:22o5yyyiiiiiiyy5o22;;22*$",
"&;333>33o#5yyiiiiiiiiyy#o32233;&",
"%-332;13o5yyiiiiiiiiiiy5o3::33-%",
"$$;;;;;;o5yyyiiyyyyyyiyyo;;;;;$$",
"$*22;;wwo55yyy5yiiiiiyiyo:;,22*$",
"$=332wrro55555yiiu66uiy5o4>333;&",
"$=33:9rro#555#yiu+  +ui544;233-%",
"%&;;>>>;o####5yi6    6i4i4999;$$",
"&;,,3332:o##5yii6    64ii4rrr9$$",
"&;,,3332:3oo##5iu+  +4ii7rrrr9$$",
"%&;;>>>;;:>>o##5iu664iii49999;$$",
"$=332;1333:9ro###y#4iit433:;;;$$",
"$=333>33332wrooooo4iit4..32;;;$$",
"$*22,;:222;;o5y5y4iit4@@O.;;;;$$",
"$$;;;;;;;;;;o.iy4iit4o@XO.;;;;$$",
"$$;;;:3331;e.@.4iit45o@XO.;233-%",
"$$;;;233339r.4@iit4#o.@XO.>333;&",
"$$;;;;<22:;oy.4@t4oo;.@@O.;,22*$",
"$*;;www8;,2oyiO4@O.o2.@@O.22,;$$",
"$=2wrrrr>33o5iiO44@.3.@XO.333>$$",
"$=:9rrr0;233ooo5...:3.@XO.332;$$",
"$%>>:;;>>>;;>o##y#o;;.@XO.;;>>%$",
"$%133:2333;,3o5yiyo;;;.@.3,,33-$",
"$$%--%====**=o5yiio$$$=.==**==*$",
"$$$$$$$$$$$$$$oooo$$$$$$$$$$$$$$"
};
