/* XPM */
static char *exit[] = {
/* columns rows colors chars-per-pixel */
"32 32 24 1 ",
"  c #141B1B",
". c #352D2A",
"X c #695953",
"o c #C8966B",
"O c #CA9C6F",
"+ c #CB9E70",
"@ c #CEA775",
"# c #CFAC79",
"$ c #D0AC79",
"% c #D1B27C",
"& c #D8B67B",
"* c #DBB87A",
"= c #E3BC76",
"- c #E9BF74",
"; c #E1BB78",
": c #E9C074",
"> c #F2C471",
", c #D7B984",
"< c #D8B983",
"1 c #DFC08C",
"2 c #E2C38F",
"3 c #E7C894",
"4 c #E9CA96",
"5 c #EECF9B",
/* pixels */
"oooooooooooooooooooooooooooooooo",
"o@##o@####O$##$O####@oooooO$##oo",
"O%;>==>>>:&>>>>&:>>>=%%%%%%:>;$o",
"oO**%%***%%&**&%%***%%%%%%%&**Oo",
"+@&<5551%:>>:%1555<&>>>;%4554%oo",
"+%:35555*>>>>*55553:>>>><5555<oo",
"OO%%333,%=::=%,333%%:::&%2332%oo",
"o@::=%&:::%%:::&%=::=%&:::%%::@o",
"+%>>>*>>>>::>>>>      >>>>::>>%+",
"O$>>:%;>>>&&>>>; 5555 ;>>>&&>>$O",
"oo%%%%%%%%%%     5555 %%%%%%%%oo",
"o@::%%333<%= 555o5555 :::&%=::@o",
"o#>>:355     555o5555 >>>>*>>>%+",
"o#>>&<55 555o555o5555 >>>;%:>>$O",
"O+%%***% 555o555o5555 *%%<<<<%oo",
"+%==>>>: 555o555o5555 >:<5555<oo",
"+%==>>>: 555o555o5555 >:<5555<oo",
"O+%%***% 555o555ooooo *%%<<<<%oo",
"o#>>:%;> 555o555oXXXX ;>>>&%%%oo",
"o#>>>*>> 555oooooXXXX >>>>:%%%oo",
"o@::=%&: 555oXXXXXXXX &:::%%%%oo",
"oo%%%%%% ooooXXXXXXXX %%%%%%%%oo",
"oo%%%&>>>............&>>>;%:>>$O",
"oo%%%:>>>><5555<>>>>::>>>>*>>>%+",
"oo%%%%-::&%2332%&:::%%:::&%=::@o",
"o@%%333,%=::=%&:::%%:::&%=::=%oo",
"o#:35555*>>>>*>>>>::>>>>*>>>>*oo",
"o#&<5551%:>>:%;>>>&&>>>;%:>>:%oo",
"oO**&%%***%%***%%%%%%%%***%%**Oo",
"oO;>>&:>>>%=>>>:%%%%%%:>>>==>>$o",
"ooO$$O####@@####oooooo####@@##@o",
"oooooooooooooooooooooooooooooooo"
};
