/* XPM */
static char *p_back_01[] = {
/* columns rows colors chars-per-pixel */
"32 32 35 1 ",
"  c #323234",
". c #760000",
"X c #4D3B39",
"o c #534721",
"O c #444444",
"+ c #705654",
"@ c #767678",
"# c #AD0000",
"$ c #FF2627",
"% c #8B5E4A",
"& c #8F7772",
"* c #C8966B",
"= c #CA9C6F",
"- c #CB9E70",
"; c #CEA775",
": c #CFAC79",
"> c #D0AE7A",
", c #D1B27C",
"< c #D8B67B",
"1 c #DBB87A",
"2 c #E3BC77",
"3 c #E1BB78",
"4 c #E9C074",
"5 c #F2C471",
"6 c #9F8781",
"7 c #979799",
"8 c #B7A099",
"9 c #B7B7BB",
"0 c #D8B983",
"q c #E2C38F",
"w c #E7C894",
"e c #E9CA96",
"r c #EECF9B",
"t c #D9D9DD",
"y c white",
/* pixels */
"************XXXX***XXXX*********",
"*;::*;:XXXXXX+&8XXX+&X****=>::**",
"=,352255XX+&&X+&8+8&+XXXXX,453>*",
"*=11,,XXX+&&8&&+&&&+X+&+X,,<11=*",
"-;<0rX+&&&X+&8&&&&&88&+XXXrre,**",
"-,4wrrXX+&&&&&&&++&&&8&&&+Xrr0**",
"==,,wX+&&+&&&8&&&&+&&&&&+X+Xq,**",
"*;44X+&&+8&&88&&8&&8&&&8&+XXX4;*",
"-,5X+&X+8&+&8&&&88+&8&&&8&X455,-",
"=>55XX++&&+&&&+&8&+&8+&+&&+X55>=",
"**,,,X&+&++&&+++&&+&&+&&+&&X,,**",
"*;44X&+++.+&+.##&&.+&+&&.++&X4;*",
"*:55X+X+..++.#.$&+..+.+&.+XXX5,-",
"*:55XXX++..+#$.$+#.#...+++X4X5>=",
"=-,,X1X++++.###.#.###.++++X00,**",
"-,2255X++X+++#$#+#$#+++X++Xrr0**",
"-,2255X+XX+++#$$+$$#+++XX+Xrr0**",
"=-,,111XOX+++#$$+$$#+++XOX000,**",
"*:554,3O@@X+X$$$X$$$X+X@@O<,,,**",
"*:5551O79@9X9$$$9$$$9X9@97O,,,**",
"*;442,O@@9t99$$$t$$$99t9@@O,,,**",
"**,,,, O@9t9t$$$y$$tt9t9@O ,,,**",
"**,,,<o6@9t9ty$$y$$yt9t9@6o455>=",
"**,,,o%@9tytyyyyyyyyytyt9@%o55,-",
"**,,,o%@9tyyyyyyyyyyyyyt9@%o44;*",
"*;,,wo%@9yytyyyyyyyyytyy9@%o2,**",
"*:4wrr@9tyt9yyyyyyyyy9tyt9@551**",
"*:<0rr@9tyt9tyyyyyyyt9tyt9@54,**",
"*=11<,@9tt99tyyyyyyyt99tt9@,11=*",
"*=355<4@@99@ttyyyyytt@99@@2255>*",
"**=>>=:::@@@@9999999@@@@::;;::;*",
"************ooo***ooo***********"
};
