/* XPM */
static char *p_back_00[] = {
/* columns rows colors chars-per-pixel */
"32 32 36 1 ",
"  c #760000",
". c #4D3B39",
"X c #534721",
"o c #444444",
"O c #77584A",
"+ c #705654",
"@ c #767678",
"# c #AD0000",
"$ c #FF2627",
"% c #8B5E4A",
"& c #A77E5D",
"* c #8F7772",
"= c #C8966B",
"- c #CA9C6F",
"; c #CB9E70",
": c #CEA775",
"> c #CFAC79",
", c #D0AC79",
"< c #D1B27C",
"1 c #D8B67B",
"2 c #DBB87A",
"3 c #E3BC76",
"4 c #E1BB78",
"5 c #E9C074",
"6 c #F2C471",
"7 c #858587",
"8 c #9F8781",
"9 c #B7A099",
"0 c #B7B7BB",
"q c #D8B983",
"w c #E2C38F",
"e c #E7C894",
"r c #E9CA96",
"t c #EECF9B",
"y c #D9D9DD",
"u c white",
/* pixels */
"================================",
"=:>>=:>>>>-,....>>>....===-,>>==",
"-<46336......+*9...+*.<<<<<564,=",
"=-22<<22..+**.+*9+9*+.....<122-=",
";:1qtt...+**9**+***+.+*+.rttr<==",
";<5et.+***.+*9*****99*+...tttq==",
"--<<ee..+*******++***9***+.ew<==",
"=:553.+**+***9****+*****+.+.55:=",
";<66.+**+9**99**9**9***9*+...6<;",
"-,6.+*.+9*+*9***99+*9***9*.166,-",
"==<<..++**+***+*9*+*9+*+**+.<<==",
"=:55<.*+*++**+++**+**+**+**.55:=",
"=>66.*+++ +*+ ##** +*+** ++*.6<;",
"=>66.+.+  ++ # $*+  + +* +...6,-",
"-;<<...++  +#$ $+# #   +++.q.<==",
";<33.6.++++ ### # ### ++++.ttq==",
";<3366.++.+++#$#+#$#+++.++.ttq==",
"-;<<22.+..+++#$$++$$#++..+.qq<==",
"=>665<4.o.+++#$$++$$$++.o.1<<<==",
"=>66626o@@.+.+$$$.#$$+.@@o5<<<==",
"=:553<1o@y0.0.$$$0.$$$0@07o<<<==",
"==<<<<X@0yy00y$$$yy$$$y@7@o<<<==",
"==<<<X8@yuy0yy$$$uu$$$y0@oX566,-",
"==<<X%@yuuyyuu##$uuy$$uy@%X666<;",
"==<<X@yuuyuuuuuuuuuuyuuy@X<355:=",
"=:<<X0uuuuuuuuuuuuuuyuyy@3553<==",
"=>5e@yuuuuuuuuuuuuuuyuy0@66662==",
"=>1q@uuuyuyuuuuuuuuyyyy0@5665<==",
"=-22@uuyyu0yuuuuyuuy0y00@2<<22-=",
"=-466@@0y00yyuuyyuuy0y00@63366,=",
"==-,,->@@0@0yyyyyuy0@0@@>>::>>:=",
"=========@@@@000@O&&&@=========="
};
