/* XPM */
static char *p_back_02[] = {
/* columns rows colors chars-per-pixel */
"32 32 39 1 ",
"  c #760000",
". c #4D3B39",
"X c #534721",
"o c #444444",
"O c #77584A",
"+ c #705654",
"@ c #767678",
"# c #AD0000",
"$ c #FF2627",
"% c #8B5E4A",
"& c #A77E5D",
"* c #8F7772",
"= c #C8966B",
"- c #CA9C6F",
"; c #CB9E70",
": c #CEA775",
"> c #CFAC79",
", c #D0AC79",
"< c #D1B27C",
"1 c #D8B67B",
"2 c #DBB87A",
"3 c #E3BC76",
"4 c #E9BF74",
"5 c #E1BB78",
"6 c #E9C074",
"7 c #F2C471",
"8 c #858587",
"9 c #9F8781",
"0 c #B7A099",
"q c #B7B7BB",
"w c #D7B984",
"e c #D8B983",
"r c #DFC08C",
"t c #E2C38F",
"y c #E7C894",
"u c #E9CA96",
"i c #EECF9B",
"p c #D9D9DD",
"a c white",
/* pixels */
"================================",
"=:>>=:>>>>-,....>>>....===-,>>==",
"-<57337......+*0...+*.<<<<<675,=",
"=-22<<22..+**.+*0+0*+.....<122-=",
";:1eii...+**0**+***+.+*+.uiiu<==",
";<6yi.+***.+*0*****00*+...iiie==",
"--<<yy..+*******++***0***+.yt<==",
"=:663.+**+***0****+*****+.+.66:=",
";<77.+**+0**00**0**0***0*+...7<;",
"-,7.+*.+0*+*0***00+*0***0*.177,-",
"==<<..++**+***+*0*+*0+*+**+.<<==",
"=:66<.*+*++**+++**+**+**+**.66:=",
"=>77.*+++ +*+ ##** +*+** ++*.7<;",
"=>77.+.+  ++ # $*+  + +* +...7,-",
"-;<<...++  +#$ $+# #   +++.e.<==",
";<33.7.++++ ### # ### ++++.iie==",
";<3377.++.+++#$#+#$#+++.++.iie==",
"-;<<22.+..++#$$++$$#+++..+.ee<==",
"=>776<5.o.++$$$++$$#+++.o.1<<<==",
"=>77727o@@.+$$#.$$$+.+.@@o6<<<==",
"=:663<o8q@q$$$.q$$$.q.qq@o<<<<==",
"==<<<<o@8@p$$$pp$$$pqqpp@oX<<<==",
"==<<<1Xo@qp$$$aa$$$ppqpap@9X77,-",
"==<<<6X%@pa$$paa$##aappaap@%X7<;",
"==<<<<4X@paapaaaaaaaaaapaap@X6:=",
"=:<<yyyw@ppapaaaaaaaaaaaaaaqX<==",
"=>6yiiii@qpapaaaaaaaaaaaaaap@2==",
"=>1eiiir@qppppaaaaaaaapapaaa@<==",
"=-221<<2@qqpqpaapaaaapqappaa@2-=",
"=-577167@qqpqpaappaappqqpq@@77,=",
"==-,,->>>@@q@qpapppppq@q@@::>>:=",
"===========@&&&O@qqq@@@@========"
};
