/* XPM */
static char *p_front_02[] = {
/* columns rows colors chars-per-pixel */
"32 32 58 1 ",
"  c #2E1E22",
". c #323234",
"X c #760000",
"o c #5C2E00",
"O c #4D3B39",
"+ c #534721",
"@ c #444444",
"# c #565657",
"$ c #77584A",
"% c #705654",
"& c #6D6D6E",
"* c #767678",
"= c #AD0000",
"- c #FF2627",
"; c #964F00",
": c #8B5E4A",
"> c #9D704C",
", c #A77E5D",
"< c #8F7772",
"1 c #C79D00",
"2 c #E3B700",
"3 c #FFD600",
"4 c #FFFC00",
"5 c #C8966B",
"6 c #CA9C6F",
"7 c #D7906E",
"8 c #CB9E70",
"9 c #CEA775",
"0 c #CFAC79",
"q c #D0AC79",
"w c #D1B27C",
"e c #D8B67B",
"r c #DBB87A",
"t c #E3BC76",
"y c #E1BB78",
"u c #E9C074",
"i c #F2C471",
"p c #1A5586",
"a c #286E9F",
"s c #288DCB",
"d c #858587",
"f c #9F8781",
"g c #928A8C",
"h c #979799",
"j c #B89D92",
"k c #B7A099",
"l c #B7B7BB",
"z c #D8B983",
"x c #EEBE93",
"c c #DFC08C",
"v c #E2C38F",
"b c #E7C894",
"n c #E9CA96",
"m c #EECF9B",
"M c #FFE1AF",
"N c #D9D9DD",
"B c gray95",
"V c white",
/* pixels */
"55555555555555555555555555555555",
"5900590000OOOOq60OOOO555556q0055",
"6wyittiiiueO<%OOOk<%OOOOOOwuiyq5",
"56rrwwrOOOOO%<<%k<%O<<%OOwwerr65",
"89ezmmmcO%<%O%k<<%<<k<<%OOOmnw55",
"8wubmmmOOO%<<<<k<<<k<%Ok<<%Omz55",
"66wwbbO%<<<kk<<<<<<<<<k<%OObvw55",
"59uutO%O%<<<<<<<k<<k<<<%<<%Ouu95",
"8wiiOOO%<k<<<k<kk<X%k<<<%<<%Oiw8",
"6qiiuwO<k<<<k<%k<%=X<<Xk<%O<%Oq6",
"55wwwO%<<%<%<<X<<=-=%<X<k%%OOw55",
"59uuwO<<%<<X<%=<%---=<X%<%<Ouu95",
"50iiO<%%<<%x%MM%MMMMx%x%<%%<Oiw8",
"50iiOO+%<%x+++MMMMM+++x7%7O%Oiq6",
"68wwOr+%<%xN NMMMMMN Nx7%7+OOw55",
"8wttiiO+%>xB gMMMMMg Bx>%+OmOz55",
"8wttiiO%%>xVooMMMMMooVx>%%Ommz55",
"68wwrrO%O+7x;;MMMMM;;x7+O%Ozzw55",
"50iiuwy@**+7xMMMMMMMx7+**@ewww55",
"50iiir@**ll+>7xxxxx7>+ll**@www55",
"59uutw@hNlNl+++++++++lNNNl@www55",
"55wwww@*hhdNVVNl*lNVVNdNlh@www55",
"55www+:@##.pNVV212VVNp.&&&.uiiq6",
"55www+::+..paVss4ssVap.&jf+iiiw8",
"55ww*l++**.$pass3ssap$+j,,+tuu95",
"59w*lll**.@p$::ddd::$p+,,,+utw55",
"50u*lNl**.@#ass&4&ssa#+:,$+iir55",
"50e*lN***+1#&&&4#4&###1+++*iuw55",
"56rr*l****+3344@@@3311+VVV*wrr65",
"56yii*uiii*$fjf+*+:::+*VVV*tiiq5",
"556qq600009+:,,$55+++5**V*990095",
"55555555555+,,,$55555555*5555555"
};
