/* XPM */
static char *p_front_01[] = {
/* columns rows colors chars-per-pixel */
"32 32 57 1 ",
"  c #2E1E22",
". c #323234",
"X c #760000",
"o c #5C2E00",
"O c #4D3B39",
"+ c #534721",
"@ c #444444",
"# c #565657",
"$ c #77584A",
"% c #705654",
"& c #6D6D6E",
"* c #767678",
"= c #AD0000",
"- c #FF2627",
"; c #964F00",
": c #8B5E4A",
"> c #9D704C",
", c #A77E5D",
"< c #8F7772",
"1 c #C79D00",
"2 c #E3B700",
"3 c #FFD600",
"4 c #FFFC00",
"5 c #C8966B",
"6 c #CA9C6F",
"7 c #D7906E",
"8 c #CB9E70",
"9 c #CEA775",
"0 c #CFAC79",
"q c #D0AE7A",
"w c #D1B27C",
"e c #D8B67B",
"r c #DBB87A",
"t c #E3BC77",
"y c #E1BB78",
"u c #E9C074",
"i c #F2C471",
"p c #1A5586",
"a c #286E9F",
"s c #288DCB",
"d c #858587",
"f c #9F8781",
"g c #928A8C",
"h c #979799",
"j c #B89D92",
"k c #B7A099",
"l c #B7B7BB",
"z c #D8B983",
"x c #EEBE93",
"c c #E2C38F",
"v c #E7C894",
"b c #E9CA96",
"n c #EECF9B",
"m c #FFE1AF",
"M c #D9D9DD",
"N c gray95",
"B c white",
/* pixels */
"555555555OOOO555OOOO555555555555",
"5900590000O<%OOOk<%OOOOOO56q0055",
"6wyittOOOOO%<<%k<%O<<%OOwwwuiyq5",
"56rrwwrO%<%O%k<<%<<k<<%OOOwerr65",
"89eznnOOO%<<<<k<<<k<%Ok<<%Onbw55",
"8wuvnO%<<<kk<<<<<<<<<k<%OOnnnz55",
"66wwO%O%<<<<<<<k<<k<<<%<<%Ovcw55",
"59uOOO%<k<<<k<kk<X%k<<<%<<%Ouu95",
"8wiiiO<k<<<k<%k<%=X<<Xk<%O<%Oiw8",
"6qiiO%<<%<%<<X<<=-=%<X<k%%OOiiq6",
"55wwO<<%<<X<%=<%---=<X%<%<Owww55",
"59uO<%%<<%x%mm%mmmmx%x%<%%<Ouu95",
"50iOO+%<%x+++mmmmm+++x7%7O%Oiiw8",
"50iOe+%<%xM MmmmmmM Mx7%7+OOiiq6",
"68wwrO+%>xN gmmmmmg Nx>%+OzOzw55",
"8wttiO%%>xBoommmmmooBx>%%Onnnz55",
"8wttiO%O+7x;;mmmmm;;x7+O%Onnnz55",
"68wwrrO**+7xmmmmmmmx7+**Ozzzzw55",
"50iiuw@*ll+>7xxxxx7>+ll*@iewww55",
"50iii@hllMl+++++++++lMllh@uwww55",
"59uut@*MhdMBBMl*lMBBMdhM*@wwww55",
"55www.@##.pMBB212BBMp.##@.wwww55",
"55www+f&@.paBss4ssBap.@&f+wuiiq6",
"55ww+:,j..$pass3ssap$..j,:+iiiw8",
"55ww+,,:.@p$::ddd::$p@.:,,+tuu95",
"59ww+::+.@#ass&4&ssa#@.+::+utw55",
"50uvn++B+1##&&4#4&&##1+B++iiir55",
"50ezn*BB*+1334@@@4331+*BB*iiuw55",
"56rre*BB**+fjf+++fjf+**BB*wwrr65",
"56yiie*B*i+:,$+u+$,:+w*B*ittiiq5",
"556qq60*00+,,:+0+:,,+50*00990095",
"55555555555+++555+++555555555555"
};
