/* XPM */
static char *p_left_00[] = {
/* columns rows colors chars-per-pixel */
"32 32 58 1 ",
"  c #2E1E22",
". c #760000",
"X c #5C2E00",
"o c #4D3B39",
"O c #534721",
"+ c #444444",
"@ c #565657",
"# c #77584A",
"$ c #705654",
"% c #6D6D6E",
"& c #767678",
"* c #AD0000",
"= c #FF2627",
"- c #964F00",
"; c #8B5E4A",
": c #9D704C",
"> c #A77E5D",
", c #8F7772",
"< c #C79D00",
"1 c #E3B700",
"2 c #FFD600",
"3 c #C8966B",
"4 c #CA9C6F",
"5 c #D7906E",
"6 c #CB9E70",
"7 c #CEA775",
"8 c #CFAC79",
"9 c #D0AC79",
"0 c #D1B27C",
"q c #D8B67B",
"w c #DBB87A",
"e c #E3BC76",
"r c #E9BF74",
"t c #E1BB78",
"y c #E9C074",
"u c #F2C471",
"i c #1A5586",
"p c #286E9F",
"a c #288DCB",
"s c #858587",
"d c #9F8781",
"f c #928A8C",
"g c #979799",
"h c #B89D92",
"j c #B7A099",
"k c #B7B7BB",
"l c #D7B984",
"z c #D8B983",
"x c #EEBE93",
"c c #DFC08C",
"v c #E2C38F",
"b c #E7C894",
"n c #E9CA96",
"m c #EECF9B",
"M c #FFE1AF",
"N c gray85",
"B c gray95",
"V c white",
/* pixels */
"33333333333333333333333333333333",
"3788378888oooo948oooo33333498833",
"40tueeuuuyqo,$ooo$,$oooooo0yut93",
"34ww00woooooo,,$,,$oj,,$o00qww43",
"67qzmmmco$,j$$,,j$,j,$$ooommn033",
"60ybmmmooo$,j,,j,,,,,,,,,$ommz33",
"4400bbo$,,,,,,,,,,,,j,,$oobbv033",
"37yyeo$,$,j,,,j,,,,$,j,,,$o0yy73",
"60uuoooo,j,,.,jj$,j,$,$$,,$ouu06",
"49uuy0o,$j,$*$,j$,j,*$,.*o,$ou94",
"33000o$$o,,.=*,,*,,,=*$*=.oo0033",
"37yy0o$oO$,*==$,=$,$=*..*.$oyy73",
"38uuybomOx$xMMM$M$$$$,$$=*$$ou06",
"38uuqzmmOxxMOOOMM,$$$,,$==*$ou94",
"4600www0OxMMN NMM,,xM,,,===oo033",
"60eeuuuyOxMMf BMM,x:M,,,*===oz33",
"60eeuuuyO5MMXXVMM,M:x$,,*===.z33",
"4600www0O:xM--MMM,x5O$,$$*===033",
"38uuy0tuuO5xMMMMMx55$$$$$*===.33",
"38uuuwuuuuO:55xxx55:$o$o$o=..*33",
"37yye0qyyy0OOOOOOO&&o0oyoy.***33",
"33000000000&kNNVVVNNk&00000**033",
"33000quuutO<1VVVNkNkNk&uut0yuu94",
"33000yuuuuzO2pVN+&kgNNk&uuwuuu06",
"330000ryyq0+2paOhh@@VNkk&q0eyy73",
"3700bbbl0ey+s;O>>>d%VNkk&&yye033",
"38ybmmmmwuu+@iO>>>#OVNkkk&uuuw33",
"38qzmmmc0yuO<@O;;#O%VNk&k&uuy033",
"34wwq00wwwO;;<2OOO<2VNk&&w00ww43",
"34tuuqyuuuO;;;OOdd>VNkk&uueeuu93",
"33499488887OOO88O>&Nk&&888778873",
"33333333333333333OO&&33333333333"
};
