/* XPM */
static char *p_left_01[] = {
/* columns rows colors chars-per-pixel */
"32 32 59 1 ",
"  c #2E1E22",
". c #760000",
"X c #5C2E00",
"o c #4D3B39",
"O c #534721",
"+ c #444444",
"@ c #565657",
"# c #77584A",
"$ c #705654",
"% c #6D6D6E",
"& c #767678",
"* c #AD0000",
"= c #FF2627",
"- c #964F00",
"; c #8B5E4A",
": c #9D704C",
"> c #A77E5D",
", c #8F7772",
"< c #C79D00",
"1 c #E3B700",
"2 c #FFD600",
"3 c #FFFC00",
"4 c #C8966B",
"5 c #CA9C6F",
"6 c #D7906E",
"7 c #CB9E70",
"8 c #CEA775",
"9 c #CFAC79",
"0 c #D0AE7A",
"q c #D1B27C",
"w c #D8B67B",
"e c #DBB87A",
"r c #E3BC77",
"t c #E9BF74",
"y c #E1BB78",
"u c #E9C074",
"i c #F2C471",
"p c #1A5586",
"a c #286E9F",
"s c #288DCB",
"d c #858587",
"f c #9F8781",
"g c #928A8C",
"h c #979799",
"j c #B89D92",
"k c #B7A099",
"l c #B7B7BB",
"z c #D7B984",
"x c #D8B983",
"c c #EEBE93",
"v c #DFC08C",
"b c #E2C38F",
"n c #E7C894",
"m c #E9CA96",
"M c #EECF9B",
"N c #FFE1AF",
"B c gray85",
"V c gray95",
"C c white",
/* pixels */
"444444444oooo444oooo444444444444",
"4899489999o,$ooo$,$oooooo4509944",
"5qyirroooooo,,$,,$ok,,$oqqquiy04",
"45eeqqeo$,k$$,,k$,k,$$oooqqwee54",
"78wxMMooo$,k,,k,,,,,,,,,$oMMmq44",
"7qunMo$,,,,,,,,,,,,k,,$ooMMMMx44",
"55qqo$,$,k,,,k,,,,$,k,,,$onnbq44",
"48uoooo,k,,.,kk$,k,$,$$,,$oquu84",
"7qiiio,$k,$*$,k$,k,*$,.*o,$oiiq7",
"50iio$$o,,.=*,,*,,,=*$*=.oowii05",
"44qqo$oO$,*==$,=$,$=*..*.$oqqq44",
"48uuqonOc$cNNN$N$$$$,$$=*$$ouu84",
"49iiunMOccNOOONN,$$$,,$=**$oiiq7",
"49iiwxMOcNNB BNN,,cN,,,==*ooii05",
"57qqeeeOcNNg VNN,c:N,,,==*ooxq44",
"7qrriiiO6NNXXCNN,N:c$,,==*oMMx44",
"7qrriiiO:cN--NNN,c6O$,$==*oMMx44",
"57qqeeeqO6cNNNNNc66$$$$*=*.xxq44",
"49iiuqyiiO:66ccc66:$o$o*=*.qqq44",
"49iiieiiiiOOOOOOO&&o&oi*=..qqq44",
"48uurqwuuu&lBBCCCCBll&w...qqqq44",
"44qqqqqqqO<1CCCBllBlll&qqqqqqq44",
"44qqqwiiiyO2aCBs+&h&&l&iiyquii05",
"44qqquiiii+2asssOjjf&Bl&iieiiiq7",
"44qqqqtuuw+d;;;;O;>;&CB&uwqruu84",
"48qqnnnzqr+@passO>>;&CBl&yuurq44",
"49unMMMMeiO<@%%%O>>#&CBl&iiiie44",
"49wxMMMvquiO<2332OOO&CBl&uiiuq44",
"45eewqqeeeqqOOjjffOq&CBl&eqqee54",
"45yiiwuiiiqriO;>;#Oq&Cl&iirrii04",
"4450059999889O>>;#O44&&999889984",
"44444444444444OOOO44444444444444"
};
