/* XPM */
static char *p_left_02[] = {
/* columns rows colors chars-per-pixel */
"32 32 57 1 ",
"  c #2E1E22",
". c #760000",
"X c #5C2E00",
"o c #4D3B39",
"O c #534721",
"+ c #444444",
"@ c #565657",
"# c #77584A",
"$ c #705654",
"% c #6D6D6E",
"& c #767678",
"* c #AD0000",
"= c #FF2627",
"- c #964F00",
"; c #8B5E4A",
": c #9D704C",
"> c #A77E5D",
", c #8F7772",
"< c #C79D00",
"1 c #E3B700",
"2 c #FFD600",
"3 c #FFFC00",
"4 c #C8966B",
"5 c #CA9C6F",
"6 c #D7906E",
"7 c #CB9E70",
"8 c #CEA775",
"9 c #CFAC79",
"0 c #D0AC79",
"q c #D1B27C",
"w c #D8B67B",
"e c #DBB87A",
"r c #E3BC76",
"t c #E9BF74",
"y c #E1BB78",
"u c #E9C074",
"i c #F2C471",
"p c #286E9F",
"a c #288DCB",
"s c #858587",
"d c #928A8C",
"f c #979799",
"g c #B89D92",
"h c #B7A099",
"j c #B7B7BB",
"k c #D7B984",
"l c #D8B983",
"z c #EEBE93",
"x c #DFC08C",
"c c #E2C38F",
"v c #E7C894",
"b c #E9CA96",
"n c #EECF9B",
"m c #FFE1AF",
"M c gray85",
"N c gray95",
"B c white",
/* pixels */
"44444444444444444444444444444444",
"4899489999oooo059oooo44444509944",
"5qyirriiiuwo,$ooo$,$ooooooquiy04",
"45eeqqeoooooo,,$,,$oh,,$oqqwee54",
"78wlnnnxo$,h$$,,h$,h,$$ooonnbq44",
"7quvnnnooo$,h,,h,,,,,,,,,$onnl44",
"55qqvvo$,,,,,,,,,,,,h,,$oovvcq44",
"48uuro$,$,h,,,h,,,,$,h,,,$oquu84",
"7qiioooo,h,,.,hh$,h,$,$$,,$oiiq7",
"50iiuqo,$h,$*$,h$,h,*$,.*o,$oi05",
"44qqqo$$o,,.=*,,*,,,=*$*=.ooqq44",
"48uuqo$oO$,*==$,=$,$=*..*.$ouu84",
"49iiuvonOz$zmmm$m$$$$,$$=*$$oiq7",
"49iiwlnnOzzmOOOmm,$$$,,$==*$oi05",
"57qqeeeqOzmmM Mmm,,zm,,,===ooq44",
"7qrriiiuOzmmd Nmm,z:m,,,*==*ol44",
"7qrriiiuO6mmXXBmm,m:z$,,*=**.l44",
"57qqeeeqO:zm--mmm,z6O$,$$****q44",
"49iiuqyiiO6zmmmmmz66$$$$$****.44",
"49iiieiiiiO:66zzz66:$o$o$o*...44",
"48uurqwuuuqOOOOOOO&&o&ouou....44",
"44qqqqqqqqq&jMMBBBMjjj&qqqq..q44",
"44qqqwiiiyO<1BBBMMMjfMM&&yquii05",
"44qqquiiiilO2pBMa+jf&&MBj&eiiiq7",
"44qqqqtuuwq+2paaapO@g&jMBj&ruu84",
"48qqvvvkqru+s;;;;;;O>>&jBMj&rq44",
"49uvnnnneii+@paaaapO;>>&BBM&ie44",
"49wlnnnxquiO2%%%%%%%O;;&MBBj&q44",
"45eewqqeeeqOg333222<<OO&jBBj&e54",
"45yiiwuiiiO>>;;#OOO;;O&&&Bj&ii04",
"4450059999O>>>#O44OOO49&&M&89984",
"44444444444OOOO4444444444&444444"
};
