/* XPM */
static char *p_right_01[] = {
/* columns rows colors chars-per-pixel */
"32 32 57 1 ",
"  c #2E1E22",
". c #760000",
"X c #5C2E00",
"o c #4D3B39",
"O c #534721",
"+ c #444444",
"@ c #565657",
"# c #77584A",
"$ c #705654",
"% c #6D6D6E",
"& c #767678",
"* c #AD0000",
"= c #FF2627",
"- c #964F00",
"; c #8B5E4A",
": c #9D704C",
"> c #A77E5D",
", c #8F7772",
"< c #C79D00",
"1 c #E3B700",
"2 c #FFD600",
"3 c #FFFC00",
"4 c #C8966B",
"5 c #CA9C6F",
"6 c #D7906E",
"7 c #CB9E70",
"8 c #CEA775",
"9 c #CFAC79",
"0 c #D0AE7A",
"q c #D1B27C",
"w c #D8B67B",
"e c #DBB87A",
"r c #E3BC76",
"t c #E9BF74",
"y c #E1BB78",
"u c #E9C074",
"i c #F2C471",
"p c #1A5586",
"a c #286E9F",
"s c #288DCB",
"d c #858587",
"f c #9F8781",
"g c #928A8C",
"h c #979799",
"j c #B89D92",
"k c #B7A099",
"l c #B7B7BB",
"z c #D8B983",
"x c #EEBE93",
"c c #E2C38F",
"v c #E7C894",
"b c #E9CA96",
"n c #EECF9B",
"m c #FFE1AF",
"M c #D9D9DD",
"N c gray95",
"B c white",
/* pixels */
"444444444444oooo444oooo444444444",
"4899489oooooo$,$ooo$,o4444509944",
"5qyirriio$,,ko$,,$,,ooooooquiy04",
"45eeqqeooo$$,k,$k,,$$k,$oqqwee54",
"78wznno$,,,,,,,,,k,,k,$ooonnbq44",
"7quvnnnoo$,,k,,,,,,,,,,,,$onnz44",
"55qqvvo$,,,k,$,,,,k,,,k,$,$ocq44",
"48uuro$,,$$,$,k,$kk,.,,k,oooou84",
"7qiio$,o*.,$*,k,$k,$*$,k$,ouiiq7",
"50iiuoo.=*$*=,,,*,,*=.,,o$$oii05",
"44qqqo$.*..*=$,$=,$==*,$Oo$oqq44",
"48uuo$$*=$$,$$$$m$mmmx$xOworuu84",
"49iio$**=$,,$$$,mmOOOmxxOieiiiq7",
"49iioo*==,,,mx,,mmM MmmxOyquii05",
"57qqoo*==,,,m:x,mmN gmmxOzzzzq44",
"7qrrio*==,,$x:m,mmBXXmm6Onnnnz44",
"7qrrio*==$,$O6x,mmm--mx:Onnnnz44",
"57qqe.*=*$$$$66xmmmmmx6Oqzzzzq44",
"49iiu.*=*o$o$:66xxx66:Oiiiwqqq44",
"49iii..=*io&o&&OOOOOOOiiiiuqqq44",
"48uurq...u&llMBBBBMMl&wuuuqqqq44",
"44qqqqqqq&lllMllMBBB1<Oqqqqqqq44",
"44qqqwii&&l&&h&+sMBa2Oiiiyquii05",
"44qqqui&&lM&fjjOsssa2+iiiieiiiq7",
"44qqqqt&&MB&;>;O;;;;d+uuuwqruu84",
"48qqvv&&lMB&;>>Ossap@+uwqruurq44",
"49uvnn&&lMB&#>>O%%%@<Oiieiiiie44",
"49wznn&&lMB&OOO2332<Oiiyquiiuq44",
"45eewq&&lMB&eOffjjOOqqqeeeqqee54",
"45yiiwu&&lB&iO#;>;Oqqquiiirrii04",
"44500599&&&89O#;>>O4449999889984",
"44444444444444OOOO44444444444444"
};
