/* XPM */
static char *p_right_02[] = {
/* columns rows colors chars-per-pixel */
"32 32 56 1 ",
"  c #2E1E22",
". c #760000",
"X c #5C2E00",
"o c #4D3B39",
"O c #534721",
"+ c #444444",
"@ c #565657",
"# c #77584A",
"$ c #705654",
"% c #6D6D6E",
"& c #767678",
"* c #AD0000",
"= c #FF2627",
"- c #964F00",
"; c #8B5E4A",
": c #9D704C",
"> c #A77E5D",
", c #8F7772",
"< c #C79D00",
"1 c #E3B700",
"2 c #FFD600",
"3 c #C8966B",
"4 c #CA9C6F",
"5 c #D7906E",
"6 c #CB9E70",
"7 c #CEA775",
"8 c #CFAC79",
"9 c #D0AC79",
"0 c #D1B27C",
"q c #D8B67B",
"w c #DBB87A",
"e c #E3BC76",
"r c #E9BF74",
"t c #E1BB78",
"y c #E9C074",
"u c #F2C471",
"i c #1A5586",
"p c #286E9F",
"a c #288DCB",
"s c #858587",
"d c #9F8781",
"f c #928A8C",
"g c #979799",
"h c #B89D92",
"j c #B7A099",
"k c #B7B7BB",
"l c #D8B983",
"z c #EEBE93",
"x c #E2C38F",
"c c #E7C894",
"v c #E9CA96",
"b c #EECF9B",
"n c #FFE1AF",
"m c #D9D9DD",
"M c gray95",
"N c white",
/* pixels */
"33333333333333333333333333333333",
"378837888849oooo888oooo333498833",
"40tueeuoooooo$,$ooo$,o00000yut93",
"34ww00wwo$,,jo$,,$,,oooooo0qww43",
"67qlbbbooo$$,j,$j,,$$j,$ovbbv033",
"60ycbbo$,,,,,,,,,j,,j,$ooobbbl33",
"4400cccoo$,,j,,,,,,,,,,,,$ocx033",
"37yye0o$,,,j,$,,,,j,,,j,$,$oyy73",
"60uuuo$,,$$,$,j,$jj,.,,j,oooou06",
"49uuo$,o*.,$*,j,$j,$*$,j$,oquu94",
"33000oo.=*$*=,,,*,,*=.,,o$$o0033",
"37yy0o$.*..*=$,$=,$==*,$Oo$oyy73",
"38uuo$$*=$$,$$$$n$nnnz$zOuouuu06",
"38uuo$*==$,,$$$,nnOOOnzzOt0yuu94",
"4600oo===,,,nz,,nnm mnnzOllll033",
"60eeo===*,,,n:z,nnM fnnzObbbbl33",
"60ee.===*,,$z:n,nnNXXnn5Obbbbl33",
"4600===*$$,$O5z,nnn--nz:Ollll033",
"38u.===*$$$$$55znnnnnz5Ouuq00033",
"38u*..=o$o$o$:55zzz55:Ouuuy00033",
"37y***.yoyo0o&&OOOOOOOqyyy000033",
"3300**00000&kmmNNNmmk&0000000033",
"33000quuut&kmkmkmNNN1<Ouut0yuu94",
"33000yuu&&kmmgk&+mNp2Ouuuuwuuu06",
"330000r&&kkmN@@hhOap2+yyyq0eyy73",
"3700cc&&&kkmN%d>>>O;s+yq0eyye033",
"38ycbb&&kkkmNO#>>>Oi@+uuwuuuuw33",
"38qlbb&&k&kmN%O#;;O@<Out0yuuy033",
"34wwq00&&&kmN2<OOO2<;;Owww00ww43",
"34tuuqyu&&kkmN>ddOO;;;Ouuueeuu93",
"334994888&&&km&>O33OOO8888778873",
"333333333333&&OO3333333333333333"
};
