/* XPM */
static char *p_right_00[] = {
/* columns rows colors chars-per-pixel */
"32 32 54 1 ",
"  c #2E1E22",
". c #760000",
"X c #5C2E00",
"o c #4D3B39",
"O c #534721",
"+ c #444444",
"@ c #565657",
"# c #77584A",
"$ c #705654",
"% c #6D6D6E",
"& c #767678",
"* c #AD0000",
"= c #FF2627",
"- c #964F00",
"; c #8B5E4A",
": c #9D704C",
"> c #A77E5D",
", c #8F7772",
"< c #C79D00",
"1 c #E3B700",
"2 c #FFD600",
"3 c #FFFC00",
"4 c #C8966B",
"5 c #CA9C6F",
"6 c #D7906E",
"7 c #CB9E70",
"8 c #CEA775",
"9 c #CFAC79",
"0 c #D0AC79",
"q c #D1B27C",
"w c #D8B67B",
"e c #DBB87A",
"r c #E3BC76",
"t c #E1BB78",
"y c #E9C074",
"u c #F2C471",
"i c #286E9F",
"p c #288DCB",
"a c #858587",
"s c #928A8C",
"d c #979799",
"f c #B89D92",
"g c #B7A099",
"h c #B7B7BB",
"j c #D8B983",
"k c #EEBE93",
"l c #E2C38F",
"z c #E7C894",
"x c #E9CA96",
"c c #EECF9B",
"v c #FFE1AF",
"b c #D9D9DD",
"n c gray95",
"m c white",
/* pixels */
"44444444444444444444444444444444",
"489948999950oooo999oooo444509944",
"5qturruoooooo$,$ooo$,oqqqqqyut04",
"45eeqqeeo$,,go$,,$,,ooooooqwee54",
"78wjcccooo$$,g,$g,,$$g,$oxccxq44",
"7qyzcco$,,,,,,,,,g,,g,$ooocccj44",
"55qqzzzoo$,,g,,,,,,,,,,,,$ozlq44",
"48yyrqo$,,,g,$,,,,g,,,g,$,$oyy84",
"7quuuo$,,$$,$,g,$gg,.,,g,oooouq7",
"50uuo$,o*.,$*,g,$g,$*$,g$,owuu05",
"44qqqoo.=*$*=,,,*,,*=.,,o$$oqq44",
"48yyqo$.*..*=$,$=,$==*,$Oo$oyy84",
"49uuo$$*=$$,$$$$v$vvvk$kOuouuuq7",
"49uuo$*==$,,$$$,vvOOOvkkOtqyuu05",
"57qqoo===,,,vk,,vvb bvvkOjjjjq44",
"7qrro*==*,,,v:k,vvn svvkOccccj44",
"7qrr.**=*,,$k:v,vvmXXvv6Occccj44",
"57qq****$$,$O6k,vvv--vk:Ojjjjq44",
"49u.****$$$$$66kvvvvvk6Ouuwqqq44",
"49u...*o$o$o$:66kkk66:Ouuuyqqq44",
"48y....yoyo&o&&OOOOOOOwyyyqqqq44",
"44qq..qqqq&hhhbmmmbbh&qqqqqqqq44",
"44qqqwuu&&bbdhbbbmmm1<Ouutqyuu05",
"44qqqy&&hmb&&dh+pbmi2Ouuuueuuuq7",
"44qqq&&hmbh&f@Oipppi2+yyywqryy84",
"48qq&&hbmh&>>O;;;;;;a+ywqryyrq44",
"49yz&&bmm&>>;Oippppi@+uueuuuue44",
"49w&&hmmb&;;O%%%%%%%2Outqyuuyq44",
"45e&&hmmh&OO<<222333fOqeeeqqee54",
"45tu&&hm&&qO;;OOO#;;>>Ouuurruu04",
"44500&&b&988OOO94O#>>>O999889984",
"444444&&4444444444OOOO4444444444"
};
