/* XPM */
static char *wall[] = {
/* columns rows colors chars-per-pixel */
"32 32 83 1 ",
"  c #020204",
". c #05050B",
"X c #08030C",
"o c #080610",
"O c #090611",
"+ c #0C0815",
"@ c #0E0E18",
"# c #100512",
"$ c #14091A",
"% c #180C1F",
"& c #1F1615",
"* c #12121E",
"= c #2A1A17",
"- c #2C1918",
"; c #321B1A",
": c #3A1F1B",
"> c #39231A",
", c #140F21",
"< c #150F21",
"1 c #171724",
"2 c #1F1025",
"3 c #1A1328",
"4 c #1F182F",
"5 c #1F1830",
"6 c #200D24",
"7 c #211126",
"8 c #27112A",
"9 c #3B1F21",
"0 c #2D1A37",
"q c #2E1D39",
"w c #41241D",
"e c #49271F",
"r c #422222",
"t c #4A2720",
"y c #452F22",
"u c #4B2820",
"i c #502725",
"p c #562C27",
"a c #5B2C26",
"s c #5C2F29",
"d c #5C3525",
"f c #5E3029",
"g c #602D29",
"h c #613727",
"j c #66342B",
"k c #6B352C",
"l c #633928",
"z c #6A3D2A",
"x c #773E2F",
"c c #783E2F",
"v c #7A3E31",
"b c #70452F",
"n c #6E4A32",
"m c #7C4132",
"M c #7B5136",
"N c #7F553A",
"B c #3A1E40",
"V c #352041",
"C c #43234A",
"Z c #4E2855",
"A c #804233",
"S c #874935",
"D c #884A34",
"F c #904E38",
"G c #80563A",
"H c #97523B",
"J c #9B553C",
"K c #9D593D",
"L c #A75D41",
"P c #A85F41",
"I c #A76141",
"U c #AE6444",
"Y c #B46746",
"T c #B76947",
"R c #BC6D49",
"E c #BF744E",
"W c #C1754F",
"Q c #CB7D54",
"! c #C28056",
"~ c #C9885C",
"^ c #D4895C",
"/ c #DD9262",
"( c #E09564",
/* pixels */
"N(//^hRYYFN(//^hRYYYk~///EzTYYPw",
"NQSSYeYjxkNQSSYeYjpmt~YFHJzJssA;",
"NQggYtYpkkNQvvYtYptmt~YkHJzJ99A;",
"NQUUYtYmAkNQUUYtYmmAt~RYYJzJmmA;",
"dSxxcwxiiidDcccwxiiiwHccccwattt-",
"dIIIKwqq7CCCC2CCCCBBCCCC$qn~~~!d",
"zJmmA;VV8ZZZZ8ZZZZCCZZZZ%VNQUUYt",
"zJiiA;%%#8888#8888668888X%NQjjYt",
"zJffA;ZZ+420VVVV%VVVV%448ZGQAAYt",
"pvkkk;ZZ+420VVVV%VVVV%448ZbUJJHu",
"yGNNM>ZZX%$.. ++++O.. %%8Z>zzzl=",
"G^QQWpZZ%Vq*1.44443*1.VV8ZzLJJF:",
"NQggYtCC,Vq@*.3333,@*.VV6CzJttA;",
"NQggYtCC%Vq,3O**.*@,3OVV6CzJttA;",
"MWYYUuZZ%Vq24+11.1*34+VV8ZlFAAv;",
">pttu=ZZX%$34+.. ..34+%%8Z=:;;;&",
"zTYYPwZZ%Vq24+11.1*35+VV8ZN(//^h",
"zJssA;ZZ%V024+11.1*34+VV8ZNQSSYe",
"zJ99A;88%Vq.. ++++O.. VV#8NQggYt",
"zJmmA;ZZ%Vq*1.44443*1.VV8ZNQUUYt",
"wattt-ZZ$q8+*.2232,@*.008ZdSxxcw",
"n~~~!dZZO2,8qq00$qqqq$228ZdIIIKw",
"NQUUYtZZ+52qVVVV%VVVV%448ZzJmmA;",
"NQvvYt88 +O$%%%%X%%%%X++#8zJrrA;",
"GQDDYtVV8ZZZZ8ZZZZCCZZZZ%VzJssA;",
"bUJJHuVV8ZZZZ8ZZZZCCZZZZ%Vpvkkk;",
">zzzl=NNGb>zzzl-NNNNddzzzpyGNNM>",
"zLJJF:(QQUzLJJF:(QQQSIJJJvG^QQWp",
"zJrrA;/mJJzJttA;/mjUxImifkNQkkYt",
"zJrrA;/mJJzJttA;/mjUxImifkNQkkYt",
"lFAAv;^YYHlFAAv;^YYYcKAAAkMWYYUu",
"=:;;;&hetu=:;;;&hettww;;;;>pttu="
};
